<?xml version="1.0" encoding="utf-8"?>
<!-- Generator: Adobe Illustrator 26.3.1, SVG Export Plug-In . SVG Version: 6.00 Build 0)  -->
<svg version="1.1" id="Calque_1" xmlns="http://www.w3.org/2000/svg" xmlns:xlink="http://www.w3.org/1999/xlink" x="0px" y="0px"
	 viewBox="0 0 120 96" style="enable-background:new 0 0 120 96;" xml:space="preserve">
<style type="text/css">
	.st0{fill:#FFFFFF;}
</style>
<path class="st0" d="M95.8,64.3c-3.6,0-6.8,1.7-8.9,4.3c-1.5,1.9-2.5,4.4-2.5,7.1c0,6.3,5.1,11.4,11.4,11.4c3.7,0,6.9-1.8,9-4.5
	c0.2-0.2,0.3-0.5,0.5-0.7c1.2-1.8,1.8-3.9,1.8-6.2C107.2,69.4,102.1,64.3,95.8,64.3z"/>
<path class="st0" d="M84.4,3.6c-9.5,0-18,3.7-24.4,9.8v38.3c0.1,0,0.2,0,0.3,0c6.3,0,11.4-5.1,11.4-11.4v-1.5
	c0.2-6.9,5.9-12.4,12.8-12.4c6.9,0,12.6,5.5,12.8,12.4c0,7.5-2.4,14.9-5.1,20.7c-1.3,2.9-2.7,5.2-3.6,6.8c-0.5,0.8-0.9,1.4-1.1,1.8
	c-0.1,0.2-0.2,0.3-0.3,0.4s0,0,0,0c0,0-0.1,0.2-0.1,0.2c2.1-2.6,5.3-4.3,8.9-4.3c6.3,0,11.4,5.1,11.4,11.4c0,2.3-0.7,4.4-1.8,6.2
	c0,0,0,0,0,0v0l0,0c0,0,0,0,0-0.1c0,0,0.1-0.2,0.1-0.2c0.2-0.2,0.3-0.4,0.5-0.8c0.4-0.6,1-1.5,1.6-2.6c1.3-2.2,3.1-5.3,4.9-9.2
	c3.5-7.5,7.2-18.3,7.2-30.5v-0.2l0-0.1C119.4,19.1,103.7,3.6,84.4,3.6z"/>
<path class="st0" d="M59.9,13.4C53.5,7.4,45,3.6,35.5,3.6C16.2,3.6,0.5,19.2,0,38.8v0.2v0.1c0,14.9,5.4,28.1,10.3,37.1
	c2.5,4.6,5,8.4,6.9,11c0.9,1.3,1.8,2.4,2.4,3.1c0.3,0.4,0.5,0.7,0.7,0.9c0.1,0.1,0.1,0.2,0.2,0.3c0,0,0,0,0.1,0.1h0l0,0
	c4.1,4.8,11.3,5.3,16,1.1c4.7-4.2,5.2-11.4,1.1-16.2c0,0,0,0,0,0s0,0-0.1-0.1c-0.1-0.1-0.2-0.3-0.4-0.5c-0.4-0.5-1-1.2-1.7-2.3
	c-1.5-2-3.4-5-5.3-8.5c-4-7.3-7.5-16.5-7.5-25.8c0.2-7,5.9-12.6,12.8-12.6c7,0,12.6,5.6,12.8,12.7c0,1.8,0.5,3.5,1.3,5
	c1.6,4.2,5.6,7.3,10.3,7.4V13.4C59.9,13.4,59.9,13.4,59.9,13.4z"/>
</svg>
