<?xml version="1.0" encoding="UTF-8"?><svg id="Calque_1" xmlns="http://www.w3.org/2000/svg" viewBox="0 0 375.34 583.1"><defs><style>.cls-1{fill:#fff;}</style></defs><path class="cls-1" d="M187.86,416.57c3.44-6.06,6.91-12.11,10.32-18.18,27.54-48.96,55.06-97.92,82.59-146.88,.25-.44,.51-.87,.86-1.45,1.54,2.72,3,5.29,4.45,7.88,29.43,52.31,58.86,104.62,88.3,156.93,.27,.48,.38,1.08,.95,1.35v.63c-.56,.36-.71,.99-1,1.52-26.48,47.06-52.96,94.12-79.42,141.19-4.41,7.84-8.78,15.7-13.16,23.55H94.57c.12-.91,.66-1.64,1.09-2.4,4.53-8.08,9.09-16.14,13.63-24.22,4.44-7.89,8.85-15.8,13.29-23.69,5.89-10.48,11.81-20.94,17.7-31.42,4.44-7.89,8.85-15.8,13.29-23.69,5.89-10.48,11.8-20.95,17.7-31.42,4.01-7.12,8.04-14.22,12.04-21.35,1.55-2.76,3.04-5.56,4.56-8.34Z"/><path class="cls-1" d="M187.86,416.57c-1.52,2.78-3,5.58-4.56,8.34-4,7.12-8.03,14.23-12.04,21.35-5.9,10.47-11.81,20.94-17.7,31.42-4.44,7.89-8.85,15.8-13.29,23.69-5.89,10.48-11.81,20.94-17.7,31.42-4.44,7.89-8.85,15.8-13.29,23.69-4.54,8.07-9.1,16.14-13.63,24.22-.43,.76-.97,1.49-1.09,2.4h-.31c-6.09-10.87-12.16-21.74-18.26-32.59C51.21,506.39,26.41,462.29,1.63,418.17c-.25-.45-.47-.91-.7-1.35,.35-.5,.8-.3,1.18-.3,61.66-.01,123.32-.01,184.97,0,.26,0,.52,.03,.78,.04Z"/><path class="cls-1" d="M187.2,166.59c-2.39,3.6-4.35,7.45-6.46,11.21-28.87,51.33-57.72,102.66-86.58,154-.2,.36-.42,.72-.64,1.1-.67-.18-.75-.82-1-1.27-27.19-48.33-54.36-96.67-81.53-145.01-3.52-6.26-7.03-12.53-10.59-18.78-.48-.85-.55-1.47-.04-2.38C31.14,110.73,61.9,55.99,92.64,1.24c.51-.9,1.06-1.18,2.07-1.18,61.49,.03,122.99,.02,184.48,.04,.57,0,1.42-.45,1.66,.6-1.51,.65-1.73,2.23-2.42,3.44-4.54,7.96-9.03,15.95-13.52,23.94-3.96,7.03-7.89,14.08-11.85,21.12-5.34,9.48-10.71,18.95-16.04,28.43-4.98,8.85-9.91,17.72-14.89,26.58-5.92,10.53-11.85,21.05-17.78,31.57-3.99,7.08-8.03,14.12-11.96,21.23-1.76,3.19-3.75,6.25-5.22,9.59Z"/><path class="cls-1" d="M187.2,166.59c1.47-3.34,3.46-6.4,5.22-9.59,3.92-7.11,7.97-14.16,11.96-21.23,5.93-10.52,11.87-21.04,17.78-31.57,4.97-8.85,9.91-17.73,14.89-26.58,5.33-9.48,10.7-18.95,16.04-28.43,3.96-7.03,7.89-14.08,11.85-21.12,4.49-7.99,8.98-15.98,13.52-23.94,.69-1.21,.91-2.79,2.42-3.44,.75,.68,1.07,1.64,1.54,2.49,30.36,53.99,60.7,107.99,91.05,161.99,.22,.4,.42,.81,.63,1.21-.38,.45-.82,.26-1.2,.26-61.54,.01-123.07,0-184.61,0-.36,0-.73-.04-1.09-.06Z"/></svg>