<?xml version="1.0" encoding="UTF-8"?><svg id="Calque_1" xmlns="http://www.w3.org/2000/svg" viewBox="0 0 516.55 225.81"><defs><style>.cls-1{fill:#fff;}</style></defs><path class="cls-1" d="M267.94,175.79c7.2-5.61,14.41-11.21,21.61-16.81l.03-.03c-7.21,5.61-14.42,11.22-21.63,16.84Z"/><path class="cls-1" d="M289.6,158.95h-.01l-.37,.39s.34-.35,.38-.39Z"/><path class="cls-1" d="M289.61,158.94h0c-.1,.12-.21,.24-.31,.35h0c.1-.12,.21-.23,.31-.35Z"/><path class="cls-1" d="M83.57,177.6c-18.48-12.16-37.14-24.04-55.63-36.18-4.92-3.23-9.46-7.05-15.5-11.59,27.88-17.58,54.07-34.09,79.72-50.27-3.59-11.56-9.04-8.42-14.69-5.06C51.67,89.82,25.83,105.1,0,120.4v18.37c28.35,17.83,56.7,35.67,84.99,53.46,8.8-7,3.92-11.12-1.42-14.63Z"/><path class="cls-1" d="M437.92,71.69c-2.63-1.56-6.61-.81-9.97-1.13,1.36,3.43,1.74,8.21,4.26,10.04,10.48,7.63,21.63,14.33,32.48,21.45,13.18,8.65,26.32,17.37,40.61,26.82-5.86,3.93-9.88,6.73-14.01,9.37-19.63,12.53-39.38,24.86-58.8,37.71-2.47,1.63-3.2,5.89-4.74,8.92,3.59,.36,8.08,2.28,10.64,.82,14.91-8.49,29.32-17.87,44.01-26.77,11.3-6.85,22.76-13.44,34.15-20.14v-20.67c-3.7-1.82-7.55-3.37-11.06-5.49-22.53-13.63-44.91-27.5-67.57-40.92Z"/><path class="cls-1" d="M306.83,131.81c4.43-5.06,9.98-2.74,5.77-9.24-11.4,6.79-22.3,13.29-33.2,19.78-8.17-.42-16.34-.84-24.5-1.26-1.15-3.29-2.3-6.57-3.71-10.59-24.73,19.53-48.62,39.87-74.12,57.93-13.92,9.85-14.92,21.12-11.79,36.3,16.63-1.14,31.79-.61,47.18-10.45,17.93-14.37,35.86-28.75,53.8-43.12,7.21-5.61,14.42-11.22,21.63-16.84,6.09-6.45,13.12-15.84,18.95-22.51Z"/><path class="cls-1" d="M289.55,158.99c-.11,.12-.23,.24-.34,.35l.37-.38-.04,.03Z"/><path class="cls-1" d="M289.62,158.93l-.04,.03-.03,.03,.04-.03,.03-.03Z"/><path class="cls-1" d="M353.94,.13c-1.62,.03-4.59,1.43-4.6,2.22-.13,9.57-3.61,22.49,1.22,27.98,8.13,9.24,7.85,16.82,5.13,26.65-1.93,6.98-3.51,14.09-4.83,21.22-6.95,37.38-29.24,63.03-61.56,81.09-2.66,3.05-5.62,5.91-8.11,9.06-.86,1.09-1.66,2.22-2.37,3.4-4.16,6.95-.67,13.85,6.54,12.35,8.54-1.78,18.16-4.53,24.32-10.14,10.32-9.41,22.55-17.61,25.64-33.77,1.68-8.79,10.34-16.04,13.38-24.83,6.22-17.99,11.17-36.45,15.86-54.92,3.14-12.35,5.07-24.89,22.77-19.98V.02c-11.47,0-22.44-.09-33.41,.1Z"/><path class="cls-1" d="M289.61,158.93l-.02,.02h0v-.02Z"/><path class="cls-1" d="M289.6,158.95s-.38,.39-.38,.39c.03-.02,.05-.03,.08-.05,.1-.12,.21-.23,.31-.35h0Z"/><path class="cls-1" d="M289.3,159.29c-2.66,3.05-5.62,5.91-8.1,9.06,2.48-3.15,5.45-6.01,8.11-9.06h0Z"/><path class="cls-1" d="M218.3,224.76c18.29,.03,36.84-1.92,54.79,.52,22.48,3.05,35.61-7.14,46.63-24.32,6.97-10.87,13.72-21.48,12.67-32.55-14.32,5.97-28.43,12.81-43.2,17.63-8.51,2.78-15.45-.99-14.95-11.64-2.09,.46-4.19,.93-6.29,1.4-17.93,14.37-35.86,28.75-53.8,43.12-4.16,5.89,.14,5.84,4.15,5.84Z"/><path class="cls-1" d="M268.04,109.38c-8.53,3.54-15.36,9.38-22.97,13.92-13.94,8.32-32.5,5.55-37.94-5.88-13.2,11-25.58,21.18-37.76,31.58-2.17,1.86-4.95,4.59-5.06,7.02-.51,12.32-.24,24.67-.24,39.57,36.24-30,72.08-55.67,103.96-86.21Z"/><path class="cls-1" d="M319.49,98.97c2.67-3.06,2.32-8.74,3.37-13.22-4.47,.72-9.82,.1-13.24,2.38-15.17,10.08-29.7,21.13-44.65,31.56-7.61,5.31-10.96,12.27-10.07,21.41,8.17,.42,16.34,.84,24.5,1.26,13.44-14.39,27.17-28.54,40.09-43.38Z"/><path class="cls-1" d="M219.33,126.01c4.5-.41,6.42-.48,8.3-.77,9.36-1.44,47.94-38.01,49.14-47.46,.23-1.81-4.1-5.96-6.24-5.9-3.46,.1-7.24,2.26-10.21,4.47-14.98,11.16-29.92,22.38-44.4,34.16-2.68,2.18-4.99,7.55-4.15,10.51,.76,2.69,6.05,4.09,7.56,4.99Z"/></svg>